<?xml version="1.0" encoding="UTF-8"?>
<!DOCTYPE svg
PUBLIC "-//W3C//DTD SVG 1.1//EN"
       "http://www.w3.org/Graphics/SVG/1.1/DTD/svg11.dtd">
<svg style="transform: translateY(.1rem)" width="1rem" height="1rem" version="1.1" xmlns="http://www.w3.org/2000/svg" xmlns:xlink="http://www.w3.org/1999/xlink" width="80.5664" height="73.0957">
 <g transform="scale(0.2)">
  <rect height="73.0957" opacity="0" width="80.5664" x="0" y="0"/>
  <path d="M49.6582 5.51758L79.0527 56.543C80.0293 58.252 80.5664 60.1562 80.5664 61.9629C80.5664 68.1641 76.416 72.9004 69.6289 72.9004L10.9375 72.9004C4.15039 72.9004 0 68.1641 0 61.9629C0 60.1562 0.488281 58.3008 1.51367 56.543L30.9082 5.51758C32.959 1.9043 36.5723 0 40.2832 0C43.9941 0 47.5586 1.9043 49.6582 5.51758ZM35.5957 55.957C35.5957 58.4473 37.793 60.4004 40.2832 60.4004C42.7734 60.4004 44.9219 58.4961 44.9219 55.957C44.9219 53.4668 42.7734 51.4648 40.2832 51.4648C37.7441 51.4648 35.5957 53.4668 35.5957 55.957ZM36.1816 22.8516L36.7188 43.6523C36.7676 45.8984 38.0371 47.168 40.2832 47.168C42.4316 47.168 43.6523 45.9473 43.7012 43.6523L44.3359 22.9004C44.3848 20.6055 42.5781 18.9453 40.2344 18.9453C37.8418 18.9453 36.1328 20.5566 36.1816 22.8516Z" fill="#F6B200" fill-opacity="0.85"/>
 </g>
</svg>
